# xmcd
#
# Track frame offsets: 
#        150
#        12571
#        25324
#        35840
#        50010
#        63426
#        77011
#        90871
#        103261
#        116278
#        129097
#        141925
#        156850
#        170536
#        183421
#        197118
#        206095
#        217022
#        230892
#        241812
#        252516
#        261226
#        271207
#        282832
#        296800
#        309350
#        321536
#        334971
#
# Disc length: 4596 seconds
#
# Revision: 0
# Processed by: cddbd v1.5.2PL0 Copyright (c) Steve Scherf et al.
# Submitted via: ExactAudioCopy v0.99pb3
#
DISCID=b011f21c
DTITLE=Various Artist - Memphis Blues (Important Postwar Blues) [CDB)
DYEAR=2006
DGENRE=Blues
TTITLE0=Howlin' Wolf - Moanin' At Midnight
TTITLE1=Howlin' Wolf - Bluebird
TTITLE2=Earl Hooker - Move On Down The Line
TTITLE3=Earl Hooker - The Hucklebuck
TTITLE4=Walter Horton - Walter's Instrumental
TTITLE5=Walter Horton - Grandmother Got Grandfather Told
TTITLE6=Willie Nix - Midnight Showers Of Rain
TTITLE7=Willie Nix - Prison Bound Blues
TTITLE8=Rufus Thomas - Bear Cat
TTITLE9=Rufus Thomas - Married Woman
TTITLE10=Rosco Gordon - Roscoe's Boogie
TTITLE11=Rosco Gordon - City Women
TTITLE12=Earl Forest - Baby, Baby
TTITLE13=Earl Forest - Rock The Bottle
TTITLE14=Little Jr. Parker - Bad Women, Bad Whiskey
TTITLE15=Little Jr. Parker - You're My Angel
TTITLE16=Bobby Bland - Good Lovin'
TTITLE17=Bobby Bland - Drifting From Town To Town
TTITLE18=James Cotton - My Baby
TTITLE19=James Cotton - Straighten Up Baby
TTITLE20=Shy Guy Douglas - Work With Her Boy
TTITLE21=Shy Guy Douglas - Detriot Arrow Blues
TTITLE22=Houston Boines - Carry My Business On (take 1)
TTITLE23=Houston Boines - Crying In The Courthouse (take 1)
TTITLE24=Charlie Booker - Walked All Night
TTITLE25=Charlie Booker - Baby I'm Coming Home
TTITLE26=Pat Hare - I'm Gonna Murder My Baby
TTITLE27=Pat Hare - Bonus Pay
EXTD=
EXTT0=
EXTT1=
EXTT2=
EXTT3=
EXTT4=
EXTT5=
EXTT6=
EXTT7=
EXTT8=
EXTT9=
EXTT10=
EXTT11=
EXTT12=
EXTT13=
EXTT14=
EXTT15=
EXTT16=
EXTT17=
EXTT18=
EXTT19=
EXTT20=
EXTT21=
EXTT22=
EXTT23=
EXTT24=
EXTT25=
EXTT26=
EXTT27=
PLAYORDER=
